<mxfile host="app.diagrams.net" modified="2023-12-25T14:42:30.579Z" agent="Mozilla/5.0 (Windows NT 10.0; Win64; x64) AppleWebKit/537.36 (KHTML, like Gecko) Chrome/120.0.0.0 Safari/537.36" version="22.1.11" etag="E89PmjDcjawkhI_CJOHs" type="github">
  <diagram name="Trang-1" id="9GICFyi6PsjHS701e6oy">
    <mxGraphModel>
      <root>
        <mxCell id="0" />
        <mxCell id="1" parent="0" />
      </root>
    </mxGraphModel>
  </diagram>
</mxfile>
